<svg width="24" height="24" viewBox="0 0 24 24" fill="none" xmlns="http://www.w3.org/2000/svg">
    <g>
        <path d="M11.9935 12.8675C11.2607 12.8675 10.664 12.2786 10.664 11.5552C10.664 10.8318 11.2607 10.2429 11.9935 10.2429C12.7264 10.2429 13.3231 10.8318 13.3231 11.5552C13.3231 12.2786 12.7264 12.8675 11.9935 12.8675ZM21.0004 4.85492L12.7522 1.15725C12.2746 0.949152 11.7311 0.947736 11.2535 1.15725L2.98817 4.84076C2.38867 5.10407 1.99856 5.68449 1.99856 6.30879C1.99856 7.46962 2.00143 8.51153 2.01864 9.45435H4.14557C4.13123 8.6078 4.12693 7.67489 4.12693 6.63863L12.0007 3.12642L19.8702 6.65421C19.8673 7.6848 19.863 8.61204 19.8473 9.45435H17.1581C16.322 7.45121 14.3241 6.04123 11.9935 6.04123C9.66296 6.04123 7.66511 7.45121 6.82897 9.45435H9.27142C9.90534 8.65593 10.8892 8.14205 11.9935 8.14205C13.8996 8.14205 15.4514 9.67378 15.4514 11.5552H21.901C21.9828 10.1197 21.9957 8.41385 22 6.32436C21.99 5.70006 21.6013 5.11965 21.0018 4.85634L21.0004 4.85492ZM19.5461 13.656C19.3983 14.511 19.1832 15.2174 18.8691 15.8276C17.9828 17.5504 16.081 18.9958 11.9864 21.8328C7.89602 18.9901 5.99713 17.5419 5.11222 15.8177C4.79957 15.209 4.58731 14.5054 4.44102 13.656H6.82897C7.66655 15.6591 9.66296 17.0691 11.9935 17.0691C14.3241 17.0691 16.322 15.6591 17.1581 13.656H14.7157C14.0817 14.4544 13.0979 14.9683 11.9935 14.9683C10.0875 14.9683 8.53567 13.4366 8.53567 11.5552H2.08892C2.42022 17.4995 3.94908 18.8231 10.9466 23.6788C11.5575 24.1063 12.4009 24.1077 13.0233 23.6802C19.1244 19.4587 21.0735 17.9128 21.6988 13.656H19.5461Z" fill="#39cccc"/>
    </g>
</svg>
